<svg width="200" height="201" viewBox="0 0 200 201" fill="none" xmlns="http://www.w3.org/2000/svg">
<rect width="200" height="201" fill="#D9D9D9"/>
<path d="M164.805 96.8479C164.819 93.8781 164.351 82.6737 163.993 79.4692C159.88 42.692 129.983 16 92.9091 16C54.2941 16 23.0071 45.707 20.8845 85.0973C20.8393 85.9571 20.5228 92.0569 20.5002 95.6879L20.4889 97.7077C20.3034 98.5426 20.1904 99.4047 20.1904 100.294V130.569C20.1904 137.182 25.5767 142.559 32.1994 142.559H44.3893C51.012 142.559 56.4004 137.182 56.4004 130.569V100.296C56.4004 93.684 51.0096 88.3063 44.3891 88.3063H32.1972C31.3818 88.3064 30.5684 88.3889 29.7696 88.5523C29.8374 87.0879 29.8984 85.9323 29.9144 85.5825C31.7746 51.0575 59.1763 25.0267 92.909 25.0267C125.299 25.0267 151.412 48.3473 155.006 80.4734C155.158 81.8139 155.352 85.2214 155.508 88.6426C154.633 88.4395 153.731 88.3062 152.796 88.3062H140.748C134.126 88.3062 128.739 93.6839 128.739 100.296V130.432C128.739 134.997 131.339 138.93 135.109 140.952L106.087 152.328V151.593C106.087 149.101 104.061 147.079 101.566 147.079H88.0044C85.5089 147.079 83.4838 149.101 83.4838 151.593V156.106C83.4838 158.597 85.5089 160.619 88.0044 160.619H101.566C101.605 160.619 101.639 160.608 101.677 160.608L109.78 160.576L156.336 142.329C156.946 142.076 157.464 141.699 157.889 141.248C161.964 139.327 164.81 135.22 164.81 130.432V100.296C164.81 99.5601 164.719 98.8447 164.59 98.1473C164.715 97.7321 164.803 97.301 164.805 96.8475L164.805 96.8479ZM32.1973 97.3331H44.3874C46.0261 97.3331 47.3573 98.66 47.3573 100.296V130.572C47.3573 132.208 46.0237 133.535 44.3871 133.535H32.1975C30.5587 133.535 29.2298 132.208 29.2298 130.572V100.296C29.2319 98.66 30.561 97.3331 32.1975 97.3331H32.1973ZM137.779 100.296C137.779 98.66 139.108 97.3331 140.747 97.3331H152.794C154.433 97.3331 155.764 98.66 155.764 100.296V130.432C155.764 132.068 154.43 133.395 152.794 133.395H140.746C139.108 133.395 137.779 132.068 137.779 130.432V100.296Z" fill="#05276E"/>
</svg>
