<svg width="310" height="114" viewBox="0 0 310 114" fill="none" xmlns="http://www.w3.org/2000/svg">
<rect width="310" height="114" fill="#05276E"/>
<circle cx="41.6763" cy="67.8236" r="31.6763" stroke="white" stroke-width="2"/>
<path d="M26.7905 58.7469L67.4543 13.7261L96.5 51.4855H91.0539M46.3963 92.1494V79.0788M46.3963 79.0788V51.4855H91.0539M46.3963 79.0788H61.6452V64.556H77.2573V92.1494H91.0539M96.5 92.1494H91.0539M91.0539 92.1494V51.4855" stroke="white" stroke-width="2"/>
<circle cx="27.1535" cy="59.8361" r="3.63071" fill="white"/>
<path d="M116.766 67.1562V69.5312H106.594V90H103.938V67.1562H116.766ZM128.797 72.5625C130.255 72.5625 131.505 72.8854 132.547 73.5312C133.589 74.1771 134.385 75.0833 134.938 76.25C135.49 77.4062 135.766 78.7604 135.766 80.3125V81.9219H123.938C123.969 83.9323 124.469 85.4635 125.438 86.5156C126.406 87.5677 127.771 88.0937 129.531 88.0937C130.615 88.0937 131.573 87.9948 132.406 87.7969C133.24 87.599 134.104 87.3073 135 86.9219V89.2031C134.135 89.5885 133.276 89.8698 132.422 90.0469C131.578 90.224 130.578 90.3125 129.422 90.3125C127.776 90.3125 126.339 89.9792 125.109 89.3125C123.891 88.6354 122.943 87.6458 122.266 86.3437C121.589 85.0417 121.25 83.4479 121.25 81.5625C121.25 79.7187 121.557 78.125 122.172 76.7812C122.797 75.4271 123.672 74.3854 124.797 73.6562C125.932 72.9271 127.266 72.5625 128.797 72.5625ZM128.766 74.6875C127.38 74.6875 126.276 75.1406 125.453 76.0469C124.63 76.9531 124.141 78.2187 123.984 79.8437H133.047C133.036 78.8229 132.875 77.9271 132.562 77.1562C132.26 76.375 131.797 75.7708 131.172 75.3437C130.547 74.9062 129.745 74.6875 128.766 74.6875ZM156.938 81.4062C156.938 82.8125 156.755 84.0677 156.391 85.1719C156.026 86.276 155.5 87.2083 154.812 87.9687C154.125 88.7292 153.292 89.3125 152.312 89.7187C151.344 90.1146 150.245 90.3125 149.016 90.3125C147.87 90.3125 146.818 90.1146 145.859 89.7187C144.911 89.3125 144.089 88.7292 143.391 87.9687C142.703 87.2083 142.167 86.276 141.781 85.1719C141.406 84.0677 141.219 82.8125 141.219 81.4062C141.219 79.5312 141.536 77.9375 142.172 76.625C142.807 75.3021 143.714 74.2969 144.891 73.6094C146.078 72.9115 147.49 72.5625 149.125 72.5625C150.688 72.5625 152.052 72.9115 153.219 73.6094C154.396 74.3073 155.307 75.3177 155.953 76.6406C156.609 77.9531 156.938 79.5417 156.938 81.4062ZM143.906 81.4062C143.906 82.7812 144.089 83.974 144.453 84.9844C144.818 85.9948 145.38 86.776 146.141 87.3281C146.901 87.8802 147.88 88.1562 149.078 88.1562C150.266 88.1562 151.24 87.8802 152 87.3281C152.771 86.776 153.339 85.9948 153.703 84.9844C154.068 83.974 154.25 82.7812 154.25 81.4062C154.25 80.0417 154.068 78.8646 153.703 77.875C153.339 76.875 152.776 76.1042 152.016 75.5625C151.255 75.0208 150.271 74.75 149.062 74.75C147.281 74.75 145.974 75.3385 145.141 76.5156C144.318 77.6927 143.906 79.3229 143.906 81.4062ZM180.188 90H176.969L166.469 78.4062V90H163.812V67.1562H166.469V78.2187L176.703 67.1562H179.75L169.641 78.25L180.188 90ZM191.359 72.5937C193.401 72.5937 194.917 73.0521 195.906 73.9687C196.896 74.8854 197.391 76.349 197.391 78.3594V90H195.5L195 87.4687H194.875C194.396 88.0937 193.896 88.6198 193.375 89.0469C192.854 89.4635 192.25 89.7812 191.562 90C190.885 90.2083 190.052 90.3125 189.062 90.3125C188.021 90.3125 187.094 90.1302 186.281 89.7656C185.479 89.401 184.844 88.849 184.375 88.1094C183.917 87.3698 183.688 86.4323 183.688 85.2969C183.688 83.5885 184.365 82.276 185.719 81.3594C187.073 80.4427 189.135 79.9427 191.906 79.8594L194.859 79.7344V78.6875C194.859 77.2083 194.542 76.1719 193.906 75.5781C193.271 74.9844 192.375 74.6875 191.219 74.6875C190.323 74.6875 189.469 74.8177 188.656 75.0781C187.844 75.3385 187.073 75.6458 186.344 76L185.547 74.0312C186.318 73.6354 187.203 73.2969 188.203 73.0156C189.203 72.7344 190.255 72.5937 191.359 72.5937ZM194.828 81.5625L192.219 81.6719C190.083 81.7552 188.578 82.1042 187.703 82.7187C186.828 83.3333 186.391 84.2031 186.391 85.3281C186.391 86.3073 186.688 87.0312 187.281 87.5C187.875 87.9687 188.661 88.2031 189.641 88.2031C191.161 88.2031 192.406 87.7812 193.375 86.9375C194.344 86.0937 194.828 84.8281 194.828 83.1406V81.5625ZM217.281 72.875V87.7969H219.734V95.9219H217.219V90H205.094V95.9219H202.609V87.7969H203.953C204.932 86.4427 205.745 84.9583 206.391 83.3437C207.036 81.7292 207.526 80.0365 207.859 78.2656C208.193 76.4844 208.37 74.6875 208.391 72.875H217.281ZM214.766 74.9375H210.703C210.609 76.4583 210.385 78.0052 210.031 79.5781C209.688 81.151 209.229 82.651 208.656 84.0781C208.083 85.4948 207.417 86.7344 206.656 87.7969H214.766V74.9375ZM231.547 72.5937C233.589 72.5937 235.104 73.0521 236.094 73.9687C237.083 74.8854 237.578 76.349 237.578 78.3594V90H235.688L235.188 87.4687H235.062C234.583 88.0937 234.083 88.6198 233.562 89.0469C233.042 89.4635 232.438 89.7812 231.75 90C231.073 90.2083 230.24 90.3125 229.25 90.3125C228.208 90.3125 227.281 90.1302 226.469 89.7656C225.667 89.401 225.031 88.849 224.562 88.1094C224.104 87.3698 223.875 86.4323 223.875 85.2969C223.875 83.5885 224.552 82.276 225.906 81.3594C227.26 80.4427 229.323 79.9427 232.094 79.8594L235.047 79.7344V78.6875C235.047 77.2083 234.729 76.1719 234.094 75.5781C233.458 74.9844 232.562 74.6875 231.406 74.6875C230.51 74.6875 229.656 74.8177 228.844 75.0781C228.031 75.3385 227.26 75.6458 226.531 76L225.734 74.0312C226.505 73.6354 227.391 73.2969 228.391 73.0156C229.391 72.7344 230.443 72.5937 231.547 72.5937ZM235.016 81.5625L232.406 81.6719C230.271 81.7552 228.766 82.1042 227.891 82.7187C227.016 83.3333 226.578 84.2031 226.578 85.3281C226.578 86.3073 226.875 87.0312 227.469 87.5C228.062 87.9687 228.849 88.2031 229.828 88.2031C231.349 88.2031 232.594 87.7812 233.562 86.9375C234.531 86.0937 235.016 84.8281 235.016 83.1406V81.5625ZM251.781 90.3125C250.24 90.3125 248.88 89.9948 247.703 89.3594C246.526 88.724 245.609 87.7552 244.953 86.4531C244.297 85.151 243.969 83.5104 243.969 81.5312C243.969 79.4583 244.312 77.7656 245 76.4531C245.698 75.1302 246.656 74.151 247.875 73.5156C249.094 72.8802 250.479 72.5625 252.031 72.5625C252.885 72.5625 253.708 72.651 254.5 72.8281C255.302 72.9948 255.958 73.2083 256.469 73.4687L255.688 75.6406C255.167 75.4323 254.562 75.2448 253.875 75.0781C253.198 74.9115 252.562 74.8281 251.969 74.8281C250.781 74.8281 249.792 75.0833 249 75.5937C248.219 76.1042 247.63 76.8542 247.234 77.8437C246.849 78.8333 246.656 80.0521 246.656 81.5C246.656 82.8854 246.844 84.0677 247.219 85.0469C247.604 86.026 248.172 86.776 248.922 87.2969C249.682 87.8073 250.63 88.0625 251.766 88.0625C252.672 88.0625 253.49 87.9687 254.219 87.7812C254.948 87.5833 255.609 87.3542 256.203 87.0937V89.4062C255.63 89.6979 254.99 89.9219 254.281 90.0781C253.583 90.2344 252.75 90.3125 251.781 90.3125ZM273.938 75.0781H268.297V90H265.734V75.0781H260.172V72.875H273.938V75.0781ZM287.375 72.5625C289.51 72.5625 291.214 73.2969 292.484 74.7656C293.755 76.2344 294.391 78.4427 294.391 81.3906C294.391 83.3385 294.099 84.974 293.516 86.2969C292.932 87.6198 292.109 88.6198 291.047 89.2969C289.995 89.974 288.75 90.3125 287.312 90.3125C286.406 90.3125 285.609 90.1927 284.922 89.9531C284.234 89.7135 283.646 89.3906 283.156 88.9844C282.667 88.5781 282.26 88.1354 281.938 87.6562H281.75C281.781 88.0625 281.818 88.5521 281.859 89.125C281.911 89.6979 281.938 90.1979 281.938 90.625V97.6562H279.328V72.875H281.469L281.812 75.4062H281.938C282.271 74.8854 282.677 74.4115 283.156 73.9844C283.635 73.5469 284.219 73.2031 284.906 72.9531C285.604 72.6927 286.427 72.5625 287.375 72.5625ZM286.922 74.75C285.734 74.75 284.776 74.9792 284.047 75.4375C283.328 75.8958 282.802 76.5833 282.469 77.5C282.135 78.4062 281.958 79.5469 281.938 80.9219V81.4219C281.938 82.8698 282.094 84.0937 282.406 85.0937C282.729 86.0937 283.255 86.8542 283.984 87.375C284.724 87.8958 285.714 88.1562 286.953 88.1562C288.016 88.1562 288.901 87.8698 289.609 87.2969C290.318 86.724 290.844 85.9271 291.188 84.9062C291.542 83.875 291.719 82.6927 291.719 81.3594C291.719 79.3385 291.323 77.7344 290.531 76.5469C289.75 75.349 288.547 74.75 286.922 74.75Z" fill="white"/>
<path d="M100.812 91.9531H296.172V92.7344H100.812V91.9531Z" fill="white"/>
</svg>
